<?xml version="1.0" standalone="no"?>
<!DOCTYPE svg PUBLIC "-//W3C//DTD SVG 20010904//EN"
 "http://www.w3.org/TR/2001/REC-SVG-20010904/DTD/svg10.dtd">
<svg version="1.0" xmlns="http://www.w3.org/2000/svg"
 width="2160.000000pt" height="2160.000000pt" viewBox="0 0 2160.000000 2160.000000"
 preserveAspectRatio="xMidYMid meet">
<metadata>
Created by potrace 1.11, written by Peter Selinger 2001-2013
</metadata>
<g transform="translate(0.000000,2160.000000) scale(0.100000,-0.100000)"
fill="#000000" stroke="none">
<path d="M10455 15619 c-1488 -105 -2859 -904 -3690 -2149 -469 -704 -738
-1482 -805 -2334 -20 -256 -11 -664 21 -931 87 -730 342 -1437 742 -2058 38
-59 71 -107 72 -105 7 8 228 394 237 413 8 18 1 38 -48 121 -31 54 -95 176
-141 269 -726 1473 -562 3242 423 4558 679 908 1645 1508 2754 1711 282 52
399 61 780 61 381 0 498 -9 780 -61 1109 -203 2075 -803 2754 -1711 842 -1126
1093 -2603 670 -3943 -97 -307 -262 -675 -418 -934 l-66 -109 123 -213 c67
-117 126 -210 131 -207 4 3 45 62 91 132 408 626 667 1339 754 2076 44 367 42
808 -4 1180 -191 1529 -1105 2876 -2470 3640 -801 448 -1759 659 -2690 594z"/>
<path d="M10707 13948 c-186 -318 -3558 -6158 -3563 -6172 -6 -15 271 -16
3625 -16 3102 0 3631 2 3624 14 -564 983 -3620 6265 -3625 6266 -4 0 -31 -42
-61 -92z"/>
<path d="M7460 7259 c538 -503 1134 -860 1805 -1084 438 -146 861 -224 1329
-244 1226 -53 2423 359 3351 1155 66 57 154 134 195 173 l75 70 -335 1 -335 0
-130 -96 c-639 -471 -1357 -750 -2167 -841 -212 -23 -684 -23 -896 0 -810 91
-1528 370 -2167 841 l-130 96 -335 0 -335 -1 75 -70z"/>
</g>
</svg>
